<svg xmlns="http://www.w3.org/2000/svg" width="225" height="101" viewBox="3 64 225 101"><path d="M42.94 138.37Q41.08 139.65 37.11 140.55Q41.72 141.32 43.64 143.27Q45.56 145.22 45.56 149.06Q45.56 150.21 45.5 151.3Q45.5 151.3 45.5 152.07Q45.5 154.69 47.03 154.69Q47.42 154.69 48.22 154.53Q49.02 154.37 49.4 154.37Q50.81 154.37 51.67 155.56Q52.54 156.74 52.54 158.66Q52.54 160.77 51.29 162.02Q50.04 163.27 47.99 163.27Q47.29 163.27 45.82 163.11Q44.34 162.95 43.64 162.95Q42.87 162.95 41.37 163.11Q39.86 163.27 39.1 163.27Q36.73 163.27 35.29 161.32Q33.85 159.37 33.85 156.17Q33.85 155.84 33.91 155.72L34.04 152.01Q34.04 152.01 34.04 151.56Q34.04 148.23 32.34 146.95Q30.65 145.67 26.23 145.67Q24.44 145.67 23.99 146.63Q23.67 147.27 23.67 149V150.47Q23.67 154.82 25.27 154.82Q25.72 154.82 26.65 154.6Q27.58 154.37 28.09 154.37Q29.43 154.37 30.36 155.59Q31.29 156.81 31.29 158.6Q31.29 163.27 26.81 163.27Q25.27 163.27 22.65 162.95Q20.02 162.63 18.1 162.63Q16.06 162.63 13.37 162.95Q10.68 163.27 8.82 163.27Q4.15 163.27 4.15 158.6Q4.15 156.81 5.14 155.59Q6.14 154.37 7.61 154.37Q8.18 154.37 9.21 154.6Q10.23 154.82 10.68 154.82Q12.41 154.82 12.41 150.47V132.74Q12.41 130.69 12.28 130.12Q11.96 128.45 10.68 128.45Q10.17 128.45 9.18 128.68Q8.18 128.9 7.61 128.9Q6.14 128.9 5.14 127.69Q4.15 126.47 4.15 124.68Q4.15 122.63 5.4 121.29Q6.65 119.94 8.63 119.94Q9.02 119.94 9.21 120.01L13.75 120.45Q15.67 120.65 17.85 120.65Q21.62 120.65 27.38 120.26Q31.22 120.01 33.08 120.01Q39.16 120.01 42.71 123.05Q46.26 126.09 46.26 131.33Q46.26 136.13 42.94 138.37ZM28.41 128.52Q25.85 128.52 25.08 128.84Q23.67 129.48 23.67 131.59V135.43Q23.67 136.9 24.15 137.35Q24.63 137.8 25.98 137.8Q34.3 137.8 34.3 132.87Q34.3 128.52 28.41 128.52Z" fill="#fff"/><path d="M84.92 144.2Q84.92 146.89 84.25 147.78Q83.58 148.68 81.59 148.68H65.98Q64.82 148.68 64.54 148.9Q64.25 149.12 64.25 150.02Q64.25 152.71 65.98 154.5Q67.7 156.29 70.33 156.29Q73.02 156.29 75.83 153.35Q77.75 151.3 80.06 151.3Q81.98 151.3 83.16 152.39Q84.34 153.48 84.34 155.14Q84.34 158.85 80.28 161.44Q76.22 164.04 70.39 164.04Q62.78 164.04 58.23 159.43Q53.69 154.82 53.69 147.14Q53.69 139.4 58.2 134.63Q62.71 129.86 70.01 129.86Q76.79 129.86 80.86 133.77Q84.92 137.67 84.92 144.2ZM64.57 141Q64.57 141.38 64.76 141.64Q64.95 141.89 66.1 141.89H73.27Q74.23 141.89 74.46 141.67Q74.68 141.45 74.68 140.87Q74.68 139.21 73.21 137.96Q71.74 136.71 69.75 136.71Q67.19 136.71 65.59 138.69Q64.57 139.97 64.57 141Z" fill="#fff"/><path d="M101.75 122.12V134.21Q105.91 129.86 111.03 129.86Q116.66 129.86 120.15 134.44Q123.64 139.01 123.64 146.44Q123.64 154.44 119.74 159.24Q115.83 164.04 109.3 164.04Q102.78 164.04 99 158.92Q99.13 159.94 99.13 160.52Q99.13 163.46 95.61 163.46Q91.96 163.46 91.96 159.75V130.56Q91.96 127.3 90.87 127.3Q90.42 127.3 89.72 127.56Q89.34 127.69 88.7 127.69Q85.62 127.69 85.62 124.17Q85.62 122.25 86.68 121.06Q87.74 119.88 89.53 119.88Q90.36 119.88 91.96 120.07Q93.56 120.26 94.39 120.26Q96.31 120.26 97.78 120.07Q99.26 119.88 99.96 119.88Q101.75 119.88 101.75 122.12ZM107.77 155.91Q113.34 155.91 113.34 146.95Q113.34 137.99 107.9 137.99Q105.27 137.99 103.58 140.52Q101.88 143.05 101.88 146.89Q101.88 155.91 107.77 155.91Z" fill="#fff"/><path d="M155.9 164.04Q150.65 164.04 148.86 159.81Q144.38 164.04 138.23 164.04Q133.18 164.04 130.17 161.38Q127.16 158.73 127.16 154.31Q127.16 147.59 132.98 145.61Q135.48 144.77 138.74 144.2Q143.29 143.43 144.92 142.44Q146.55 141.45 146.55 139.4Q146.55 137.93 145.3 136.93Q144.06 135.94 142.2 135.94Q140.09 135.94 140.09 137.29Q140.09 137.73 140.15 138.18V138.44Q140.15 140.23 138.65 141.44Q137.14 142.66 134.9 142.66Q132.34 142.66 130.68 141.12Q129.02 139.59 129.02 137.29Q129.02 133.83 132.66 131.85Q136.31 129.86 142.71 129.86Q149.62 129.86 153.02 131.97Q156.66 134.28 156.66 140.55V153.8Q156.66 155.84 157.69 155.84Q158.2 155.84 158.65 155.78Q158.84 155.72 159.1 155.72Q160.57 155.72 161.59 156.74Q162.62 157.77 162.62 159.24Q162.62 161.35 160.73 162.69Q158.84 164.04 155.9 164.04ZM146.62 150.34V148.93Q146.17 149.19 140.98 150.53Q137.46 151.43 137.46 153.29Q137.46 156.23 140.92 156.23Q146.62 156.23 146.62 150.34Z" fill="#fff"/><path d="M177.14 129.86Q182.07 129.86 185.46 132.61Q185.72 129.93 188.92 129.93Q192.18 129.93 192.18 132.23Q192.18 133 191.93 133.96Q191.74 135.11 191.74 136.13Q191.74 136.33 191.8 137.16Q191.8 137.99 191.8 138.63V138.89Q191.8 142.28 188.41 142.28Q185.98 142.28 184.18 139.85Q182.01 136.9 178.87 136.9Q175.16 136.9 175.16 139.46Q175.16 140.81 176.38 141.35Q177.59 141.89 182.78 142.79Q187 143.56 189.02 144.52Q191.03 145.48 192.31 147.27Q193.91 149.57 193.91 152.65Q193.91 157.51 190.17 160.77Q186.42 164.04 180.79 164.04Q175.16 164.04 170.55 160.45Q170.55 163.59 167.35 163.59Q163.9 163.59 163.9 160.77Q163.9 160.13 164.02 158.79Q164.15 157.45 164.15 156.81Q164.15 156.23 164.06 155.08Q163.96 153.93 163.96 153.35Q163.96 150.47 167.54 150.47Q169.27 150.47 170.17 150.98Q171.06 151.49 172.09 152.97Q173.69 155.33 175.03 156.07Q176.38 156.81 179 156.81Q183.61 156.81 183.61 153.93Q183.61 151.94 179.9 151.17L176.18 150.41Q171.64 149.45 169.75 148.49Q167.86 147.53 166.78 145.44Q165.69 143.37 165.69 140.68Q165.69 135.88 168.86 132.87Q172.02 129.86 177.14 129.86Z" fill="#fff"/><path d="M228.28 144.2Q228.28 146.89 227.61 147.78Q226.94 148.68 224.95 148.68H209.34Q208.18 148.68 207.9 148.9Q207.61 149.12 207.61 150.02Q207.61 152.71 209.34 154.5Q211.06 156.29 213.69 156.29Q216.38 156.29 219.19 153.35Q221.11 151.3 223.42 151.3Q225.34 151.3 226.52 152.39Q227.7 153.48 227.7 155.14Q227.7 158.85 223.64 161.44Q219.58 164.04 213.75 164.04Q206.14 164.04 201.59 159.43Q197.05 154.82 197.05 147.14Q197.05 139.4 201.56 134.63Q206.07 129.86 213.37 129.86Q220.15 129.86 224.22 133.77Q228.28 137.67 228.28 144.2ZM207.93 141Q207.93 141.38 208.12 141.64Q208.31 141.89 209.46 141.89H216.63Q217.59 141.89 217.82 141.67Q218.04 141.45 218.04 140.87Q218.04 139.21 216.57 137.96Q215.1 136.71 213.11 136.71Q210.55 136.71 208.95 138.69Q207.93 139.97 207.93 141Z" fill="#fff"/><path d="M7.57 113.17c61.62-59.51 157.45-60.25 214.04-1.65" stroke="#3f0" stroke-width="8" stroke-linecap="round" fill="none"/><path d="M222.16 113.54a1.43 1.43 0 1 1 .45-2.83 1.43 1.43 0 1 1-.45 2.83" fill="#3f0"/><path d="M222.16 113.54a1.43 1.43 0 1 1 .45-2.83 1.43 1.43 0 1 1-.45 2.83zm1.75-1.79-5.45-19.37m3.91 21.29-20.45-4.92" stroke="#3f0" stroke-width="8" fill="none"/></svg>